<svg width="694" height="486" viewBox="0 0 694 486" fill="none" xmlns="http://www.w3.org/2000/svg">
<path d="M69.6664 485.667C50.5997 485.667 34.2717 478.872 20.6824 465.283C7.09306 451.693 0.309956 435.377 0.333067 416.333V69.6666C0.333067 50.6 7.12773 34.272 20.7171 20.6826C34.3064 7.09331 50.6228 0.3102 69.6664 0.333311H624.333C643.4 0.333311 659.728 7.12797 673.317 20.7173C686.906 34.3066 693.69 50.6231 693.666 69.6666V416.333C693.666 435.4 686.872 451.728 673.282 465.317C659.693 478.907 643.377 485.69 624.333 485.667H69.6664ZM208.333 381.667H485.666V312.333H208.333V381.667ZM104.333 277.667H173.666V208.333H104.333V277.667ZM208.333 277.667H277.666V208.333H208.333V277.667ZM312.333 277.667H381.666V208.333H312.333V277.667ZM416.333 277.667H485.666V208.333H416.333V277.667ZM520.333 277.667H589.666V208.333H520.333V277.667ZM104.333 173.667H173.666V104.333H104.333V173.667ZM208.333 173.667H277.666V104.333H208.333V173.667ZM312.333 173.667H381.666V104.333H312.333V173.667ZM416.333 173.667H485.666V104.333H416.333V173.667ZM520.333 173.667H589.666V104.333H520.333V173.667Z" fill="#3373FF"/>
</svg>
