<svg width="665" height="525" viewBox="0 0 665 525" fill="none" xmlns="http://www.w3.org/2000/svg">
<path fill-rule="evenodd" clip-rule="evenodd" d="M318.948 50.8188C380.404 44.0789 433.815 -11.7144 494.046 2.22758C558.586 17.1669 614.525 66.9222 644.261 126.12C674.378 186.077 664.63 256.6 655.19 323.029C645.736 389.551 646.216 472.889 589.795 509.375C531.065 547.355 454.167 504.62 384.536 498.056C341.549 494.003 300.977 489.074 259.189 478.207C215.964 466.967 172.879 458.286 135.808 433.377C89.6138 402.339 40.7333 369.369 20.2143 317.637C-2.38995 260.647 -10.0596 191.731 18.4299 137.443C46.6729 83.6246 108.507 54.9398 166.908 38.1057C216.786 23.7285 267.349 56.4778 318.948 50.8188Z" fill="#2563EB"/>
</svg>
