<svg width="663" height="663" viewBox="0 0 663 663" fill="none" xmlns="http://www.w3.org/2000/svg">
<path d="M282.338 483.893V582.75C282.21 586.465 280.641 589.986 277.961 592.568C275.282 595.15 271.703 596.592 267.979 596.59H163.995C146.897 593.715 131.42 584.761 120.421 571.381M497.733 300.513L571.017 251.084C572.655 250.362 574.426 249.99 576.216 249.99C578.007 249.99 579.778 250.362 581.416 251.084C583.328 251.308 585.166 251.956 586.795 252.983C588.423 254.009 589.8 255.388 590.824 257.016L647.767 342.033C651.169 348.868 652.94 356.396 652.94 364.029C652.94 371.661 651.169 379.189 647.767 386.024M200.637 197.207L133.79 166.561C130.493 164.861 127.953 161.99 126.67 158.514C125.387 155.038 125.454 151.208 126.858 147.779L183.306 35.0814C187.078 28.4091 192.351 22.7032 198.71 18.4142C205.069 14.1251 212.34 11.3702 219.948 10.3671M219.948 10.3671C219.948 10.3671 280.853 10.3671 358.098 158.653L317.99 208.081H484.364L543.288 52.8757L473.966 74.13C472.958 63.4053 469.068 53.1513 462.705 44.4511C456.343 35.7509 447.745 28.9274 437.819 24.7014C403.69 13.4227 367.76 8.56241 331.855 10.3671H219.948ZM120.421 571.876C120.421 571.876 66.4483 524.919 191.724 399.864H247.677L163.995 261.959H10L52.0887 315.836C52.0887 315.836 23.8645 320.779 23.8645 359.827C38.6684 437.179 71.773 509.88 120.421 571.876ZM649.748 381.081C649.748 381.081 633.903 445.339 470.004 430.51V387.507L373.943 513.056L465.053 652.939L470.004 587.199C470.004 587.199 488.325 609.441 519.521 587.199C571.838 524.521 615.626 455.215 649.748 381.081Z" stroke="#00FFB2" stroke-width="20" stroke-linecap="round" stroke-linejoin="round"/>
</svg>
